<svg xmlns="http://www.w3.org/2000/svg" viewBox="0 0 337.16 337.78"><defs><style>.cls-1{fill:#dc4345;fill-rule:evenodd;}.cls-2{fill:#535d91;}</style></defs><g id="Capa_2" data-name="Capa 2"><g id="Capa_1-2" data-name="Capa 1"><path class="cls-1" d="M159.77,231.18a4.88,4.88,0,0,0-4.83-4.69c-6.67,0-6.38,10,.19,9.64a4.91,4.91,0,0,0,4.64-4.95Zm55.49-110.26a33.81,33.81,0,0,1-9-2c-11.16-3.92-14.34-9.76-20-12.53-5.23-2.53-12.28-2.86-18.81-2.87-6.69,0-13.05,1.21-19.17,2.51-12.07,2.58-19,8.48-27,16.49-5.28,5.26-17.26,18.81-17.26,26.94,0,6.18,32,24.21,34.86,24.21,1.49,0,3.06-1.56,3.84-2.34,2.7-2.69,4.8-8,4.8-12.12,0-5.06-1.36-7.79-3-12.13-1.06-2.91-2.59-7.6-2.59-10.89,0-5.17,2.91-12.94,6-15.67,0,.61-1,3.24-1.27,4.4a35.91,35.91,0,0,0,.38,15.32c1.87,7.73,4.84,10,4.84,19.59,0,6.23-3,16.78-7.88,20.47-1.79,1.34-3.49.27-5.28-.42a89.71,89.71,0,0,1-9.56-4.53c-1.09-.58-3.73-2.25-4.8-2.2-.21.29-2.51,9.91-2.83,11.21-2.28,9.26-6.53,23.05-10.49,31.6-3.62,7.84-6.4,13.24-11.46,20L88.64,248.85c-.37.39.06.07-.46.42-1.06-.49-4.73-5.36-5.68-6.6a125.34,125.34,0,0,1-7.17-10.88A101.2,101.2,0,0,1,63.45,201.4a82.29,82.29,0,0,1-1.74-10.3c-1.21-12.26-1.09-15.37.12-27.72,1-9.91,4.87-22.11,9-30.66a103.4,103.4,0,0,1,7-12.85l2.7-3.93c.94-1.36,1.81-2.63,2.8-3.85a123,123,0,0,1,9.2-10.48l10.63-9.28A119.51,119.51,0,0,1,123.76,80c12.24-5.78,29-9.78,42.78-9.78a148,148,0,0,1,16.54,1c12.4,1.19,29,7.16,39.36,13.5,1.5.91,2.71,1.59,4.12,2.52s2.48,1.61,3.85,2.57a102.45,102.45,0,0,1,20.65,18.94c10.46,12.71,18.52,27.42,22.16,43.75a107.83,107.83,0,0,1,3.08,23.37c0,9.37-.71,19-3.19,28a108.81,108.81,0,0,1-6.87,19.44c-4.6,9.37-9.91,18.38-17,25.91-.6.64-.94,1.17-1.5,1.82-.43.47-1.25,1.19-1.68,1.64a109.12,109.12,0,0,1-42.2,27c-6.3,2.18-14.56,4.43-21.34,5-11.13,1-10.85,1.2-21.15.59-1.48-.09-3.58.13-5-.44s-1.76-7.11-1.76-8.87c0-4.47-.12-9.19.73-13.64.35-1.83,1.05-4.62,1.19-6.28-1.64-.39-4.06,0-6.14-.45a27.43,27.43,0,0,1-5.24-1.39c-6.36-2.69-10.87-6.88-13.32-13.24-1.83-4.76,1.45-5.45,4.82-7.3,1.09-.6,3.38-1.46,3.84-2.79,2-5.91,1-7.85,5.7-14.2a22.54,22.54,0,0,1,7.31-6c3.65-2.05,7.61-2.61,7.61-5.66,0-5.41-2.57-11.22,4.82-9.38,12.13,3,19.79,8,25.7,19.71,2.58,5.09,4.23,11.2,5.92,16.88.59,2,1,3.84,1.59,5.87,1.26,4.14,2.23,7.49,3.8,11.35.61,1.5,4,8.42,6.06,9.06.23-.46.2-.21.2-.83,0-14.69-1.79-31.57-6.26-44.11-5.28-14.83-16.38-18.27-11.26-34.58a20.38,20.38,0,0,1,4.36-7.87,40,40,0,0,1,3.33-2.88c12.82-11,28.73-14.53,34.62-32.56a43.62,43.62,0,0,0,1.76-11.93c0-3.52-5.78-3.36-8.51-3.28-4.61.14-6.91.42-12,.42Z"/><path class="cls-1" d="M188.66,129.38c-.7,6.38-11.35,5.69-10.31-1.65.9-6.32,11.09-5.54,10.31,1.65Z"/><path class="cls-2" d="M333.45,108.77,173.27,1.42A8.36,8.36,0,0,0,162.19,3L3.71,109.22A8.37,8.37,0,1,0,13,123.12L168.91,18.65l155.22,104a8.37,8.37,0,0,0,9.32-13.91Z"/><path class="cls-2" d="M1.39,336.79V297.9H13c7.75,0,12.53,3.57,12.53,10.38S20.73,318.71,13,318.71H5.35v18.08Zm4-21.7H12c5.72,0,9.23-2.36,9.23-6.81s-3.57-6.76-9.23-6.76H5.35Z"/><path class="cls-2" d="M35.69,297.9H59.8v3.62H39.64v13.24H58.48v3.63H39.64v14.77H60.46v3.63H35.69Z"/><path class="cls-2" d="M66.53,297.9h30v3.62h-13v35.27h-4V301.52h-13Z"/><path class="cls-2" d="M127.19,301.63l-3.46,2.7a8.45,8.45,0,0,0-7.53-3.8c-4.67,0-8.29,2.69-8.29,7,0,3.58,2.3,5.66,7.14,7.2,7.25,2.31,12.74,4.18,12.8,11.7.06,6.48-5.93,11.32-12.86,11.32A14.71,14.71,0,0,1,102.8,332l3.57-2.58a9.74,9.74,0,0,0,8.79,4.72c4.39,0,8.4-2.91,8.4-7.08,0-3.79-2-5.88-8-7.69-6.64-2.09-11.92-4-11.92-11.43,0-6.87,5.55-11,12.58-11C121.2,296.91,124.55,298.56,127.19,301.63Z"/><path class="cls-2" d="M137.32,297.9h8.57v14.5h16.64V297.9h8.57v38.89h-8.57V320H145.89v16.81h-8.57Z"/><path class="cls-2" d="M221.66,317.34c0,12.36-8.79,20.44-21,20.44s-21-8-21-20.44,8.74-20.43,21-20.43S221.66,305,221.66,317.34Zm-21,12.53c7.25,0,12.08-5.22,12.08-12.53s-4.83-12.52-12.14-12.52-12,5.16-12,12.52S193.37,329.87,200.68,329.87Z"/><path class="cls-2" d="M238.83,297.9v23.67c0,4.62,3.29,8.3,7.85,8.3a7.91,7.91,0,0,0,7.8-8.3V297.9h8.57V322c0,8.46-5.16,15.82-16.37,15.82s-16.42-7.36-16.42-15.82V297.9Z"/><path class="cls-2" d="M298.84,301,293,307.4c-1.37-1.76-4.12-2.58-6.21-2.58-2.36,0-5.77,1.1-5.77,4,0,3.4,4.12,4.12,8.4,5.44,4.67,1.43,9.51,3.68,9.51,10.71,0,8.84-7.09,12.8-15,12.8a18.24,18.24,0,0,1-13.07-4.89l6.1-6.7a9.51,9.51,0,0,0,7.47,3.68c2.36,0,5.93-1.05,5.93-4.07,0-3.4-4.12-4.28-8.46-5.71-4.78-1.54-9.78-3.74-9.78-10.55,0-8.29,7.25-12.63,14.84-12.63A17.79,17.79,0,0,1,298.84,301Z"/><path class="cls-2" d="M308.36,297.9h26.42v7.91H316.93v7.25h16.86V321H316.93v7.91h18.84v7.91H308.36Z"/></g></g></svg>